<svg width="455" height="869" viewBox="0 0 455 869" fill="none" xmlns="http://www.w3.org/2000/svg">
<g clip-path="url(#clip0_93_14016)">
<path d="M163.499 535.183C149.883 540.585 136.134 540.255 123.942 537.076C104.891 532.108 90.6766 521.077 89.3512 519.918L88.7879 518.957L87.2638 518.56C85.7398 518.162 41.5749 503.391 34.514 464.927C29.0775 435.838 46.4015 403.733 54.749 390.446L45.0722 365.136C42.653 358.808 45.9653 352.347 52.2931 349.928C58.6208 347.509 65.0816 350.821 67.5008 357.149L77.1777 382.46C80.7891 384.215 85.9246 386.368 92.1868 390.442C91.0601 388.521 90.8942 386.036 89.9662 383.353C85.0603 358.472 99.2706 332.065 107.221 320.303L98.3059 295.191C95.8867 288.863 99.1991 282.402 105.527 279.983C111.855 277.564 118.315 280.876 120.735 287.204L129.649 312.316C131.935 312.912 134.785 314.469 138.396 316.225C136.143 312.382 134.85 307.976 134.32 303.768C128.851 277.927 144.982 250.393 151.972 239.194L151.638 215.506C151.704 209.012 156.341 203.711 163.034 203.014C169.527 203.08 174.829 207.718 175.525 214.41L176.488 232.566C188.084 238.031 210.681 251.248 215.587 276.128C216.316 279.574 216.283 282.821 216.25 286.068C219.133 284.378 222.015 282.688 224.698 281.76C247.524 272.249 270.717 283.179 281.916 290.169L297.486 280.394C303.251 277.014 310.109 278.802 313.489 284.566C316.869 290.331 315.081 297.189 309.316 300.569L290.864 312.034C286.359 323.067 271.155 353.284 245.646 363.723C241.041 365.778 236.833 366.308 232.626 366.839C235.475 368.395 238.324 369.952 240.412 371.31L266.253 365.841C272.382 364.184 278.644 368.258 280.302 374.387C281.959 380.516 277.884 386.779 271.755 388.436L246.676 394.104C241.012 406.462 226.603 433.631 202.816 443.705C200.895 444.832 198.41 444.998 195.726 445.926C201.624 448.277 206.561 451.192 209.211 453.511L235.251 447.28C241.38 445.623 247.643 449.697 249.3 455.826C250.957 461.955 246.882 468.217 240.753 469.874L215.674 475.542C208.436 490.76 190.715 524.39 163.482 535.193L163.499 535.183ZM150.138 439.735C142.153 436.025 137.613 431.586 136.851 431.387L135.327 430.99C134.565 430.791 128.668 428.44 121.644 424.166C123.135 427.811 123.864 431.256 125.355 434.9C126.449 440.069 126.781 445.038 126.152 450.571C130.194 447.556 134.997 444.739 139.602 442.685C143.247 441.193 146.692 440.464 150.138 439.735ZM180.443 351.604C180.067 350.963 180.067 350.963 180.443 351.604L178.919 351.207C178.157 351.008 173.021 348.855 165.799 345.344C168.052 349.187 169.344 353.593 169.875 357.801C170.604 361.246 170.571 364.493 170.539 367.74C173.421 366.05 176.303 364.36 178.987 363.432C183.591 361.377 187.799 360.847 192.007 360.316C185.943 355.48 181.219 351.806 180.443 351.604ZM112.925 379.573C115.279 392.395 127.041 400.345 134.828 404.817C141.055 393.419 149.634 376.124 146.717 362.342C144.363 349.521 132.601 341.57 124.815 337.099C118.024 347.535 110.207 365.029 112.925 379.573ZM57.4732 461.147C60.3574 478.176 76.4931 488.08 86.5654 493.148C94.9129 479.862 104.883 457.233 102.197 439.442C99.3133 422.413 83.1775 412.509 73.1053 407.441C64.7577 420.727 54.0257 443.158 57.4732 461.147ZM190.507 281.796C188.154 268.975 176.391 261.025 168.605 256.553C162.378 267.951 153.799 285.246 156.716 299.028C159.069 311.849 170.832 319.799 178.618 324.271C185.409 313.834 193.424 295.578 190.507 281.796ZM265.485 309.486C257.699 305.014 244.38 299.913 231.724 304.752C218.87 310.352 208.204 326.289 201.977 337.687C209.763 342.159 223.082 347.259 235.737 342.421C249.155 337.781 260.02 321.082 265.485 309.486ZM221.894 389.269C214.107 384.797 200.788 379.697 188.895 384.734C176.041 390.334 165.374 406.271 159.147 417.669C166.933 422.141 180.252 427.241 192.146 422.204C205.563 417.565 216.428 400.866 221.894 389.269ZM148.55 464.55C132.052 471.642 118.47 492.516 111.647 506.199C121.52 512.029 139.014 519.846 154.552 513.318C171.05 506.226 184.632 485.352 191.455 471.669C181.582 465.839 164.088 458.022 148.55 464.55Z" fill="#454545"/>
<path d="M287.576 240.373C270.649 270.954 231.026 279.34 229.303 279.705C227.58 280.07 225.858 280.434 223.571 279.838C219.761 278.845 217.111 276.526 215.619 272.882C215.255 271.159 200.938 232.431 217.666 202.611C231.479 177.728 260.997 167.521 271.731 163.809L282.431 144.625C285.544 138.927 292.634 136.706 298.333 139.82C304.032 142.933 306.252 150.023 303.138 155.722L292.439 174.906C292.241 175.668 291.479 175.469 291.28 176.231C295.356 188.688 300.229 216.815 287.576 240.373ZM238.573 212.946C231.186 225.669 232.546 242.3 234.734 252.637C244.706 248.726 259.68 241.237 266.305 228.315C273.692 215.592 272.331 198.961 270.144 188.624C260.172 192.535 245.959 200.223 238.573 212.946Z" fill="#454545"/>
<path d="M180.821 162.891C178.668 168.027 172.141 171.208 166.807 169.817L165.283 169.42C159.385 167.068 156.403 159.779 158.755 153.882L167.366 133.34C170.48 127.641 177.769 124.659 183.666 127.01C189.564 129.362 192.546 136.65 190.195 142.548L180.821 162.891Z" fill="#454545"/>
<path d="M26.5938 133.255L25.0697 132.858C19.7355 131.467 15.3948 126.266 16.2224 119.971L18.738 97.8395C19.5656 91.5446 24.7667 87.2039 31.2603 87.2695C37.5553 88.0971 42.658 93.4968 41.6317 100.554L39.1161 122.685C39.0505 129.179 33.6507 134.282 26.5938 133.255Z" fill="#454545"/>
<path d="M350.296 271.376C347.413 273.066 344.167 273.034 341.881 272.438C338.832 271.643 336.182 269.324 334.492 266.442C331.112 260.677 332.9 253.819 338.665 250.439L357.879 239.173C363.644 235.793 370.502 237.581 373.882 243.345C377.262 249.11 375.473 255.968 369.709 259.348L350.296 271.376Z" fill="#454545"/>
<path d="M67.9884 271.009C65.305 271.937 62.8202 272.103 59.7721 271.308C56.724 270.513 54.6366 269.155 52.9466 266.273C51.6212 265.113 29.6188 230.891 39.1238 197.561C46.6418 171.851 69.7321 155.084 81.0622 149.086L87.0234 126.225C88.613 120.129 95.3381 116.186 101.434 117.775C107.531 119.365 111.474 126.09 109.884 132.186L104.32 153.523C109.954 163.131 123.805 191.158 115.691 219.154C106.948 252.683 69.9235 269.886 67.9884 271.009ZM62.7467 203.721C58.9713 218.199 63.9757 233.339 68.6482 243.51C77.4935 237.678 90.2145 226.346 93.7911 212.63C97.5665 198.151 92.5622 183.011 87.8897 172.84C79.0444 178.672 66.3233 190.004 62.7467 203.721Z" fill="#454545"/>
<path d="M-162.968 254.733L-143.087 272.124C-140.603 271.958 -138.118 271.792 -134.109 272.024C-137.522 269.506 -140.736 266.227 -143.95 262.947C-161.114 241.381 -159.063 208.548 -158.17 195.76L-168.674 176.744C-172.054 170.979 -170.266 164.121 -164.502 160.741C-158.737 157.361 -151.879 159.149 -148.499 164.914L-139.684 181.048C-126.499 180.417 -100.921 182.203 -85.646 201.649C-83.9561 204.531 -82.0674 206.652 -80.3774 209.534C-78.8206 206.684 -77.2637 203.835 -74.9449 201.184C-58.514 181.867 -32.3408 181.367 -19.5522 182.261L-9.84658 166.887C-6.73289 161.188 1.11891 159.166 6.61902 163.042C12.3178 166.156 14.3397 174.008 10.4639 179.508L-1.39472 200.017C-0.763843 213.203 -0.130998 245.108 -17.5225 264.988C-20.8021 268.202 -24.0818 271.416 -27.1627 273.868C-23.1538 274.099 -19.907 274.132 -17.6209 274.728L2.42136 257.167C7.62243 252.826 14.6794 253.853 19.2187 258.292C23.5594 263.493 22.5331 270.55 18.0941 275.089L-1.94817 292.65C-1.516 306.598 -1.24778 336.781 -17.6786 356.098C-19.0367 358.185 -20.9582 359.312 -23.0784 361.2C-16.386 360.504 -10.0911 361.331 -6.08222 361.563L14.722 344.2C19.9231 339.859 26.9801 340.886 31.5195 345.325C35.8601 350.526 34.8338 357.583 30.3948 362.122L9.59052 379.485C10.3873 395.156 10.59 431.831 -9.12046 454.362C-34.0647 484.481 -79.8192 475.806 -81.3433 475.408L-82.8674 475.011L-83.8281 475.574C-84.7888 476.137 -102.58 478.823 -122.392 473.657C-134.585 470.477 -146.745 464.051 -155.989 452.688C-175.042 429.002 -173.522 391.961 -172.033 376.887L-191.151 359.694C-195.69 355.255 -196.188 347.801 -191.749 343.261C-187.31 338.722 -179.855 338.224 -175.316 342.663L-155.635 360.817C-151.427 360.286 -146.457 359.954 -140.162 360.782C-142.25 359.424 -143.376 357.502 -145.265 355.382C-161.303 335.737 -160.411 304.23 -159.319 290.679L-178.438 273.486C-182.977 269.047 -183.475 261.593 -179.036 257.054C-174.958 250.778 -167.503 250.28 -162.964 254.719L-162.968 254.733ZM-90.5303 382.676C-87.515 386.718 -84.6984 391.521 -82.6438 396.126C-80.6895 391.753 -77.7745 386.816 -74.2962 382.84C-71.9774 380.189 -68.8964 377.737 -65.8155 375.285C-74.794 375.386 -80.8902 373.796 -81.0889 374.558L-82.613 374.161C-83.375 373.962 -89.504 375.619 -98.2837 374.957C-95.633 377.276 -92.9823 379.595 -90.5303 382.676ZM-25.8681 296.993C-34.8465 297.093 -48.9933 298.288 -57.308 308.327C-66.5835 318.93 -68.503 338.776 -67.6734 351.199C-58.695 351.099 -44.5483 349.905 -36.2335 339.865C-27.1567 330.025 -25.2372 310.179 -25.8681 296.993ZM-80.7322 301.405C-79.1753 298.556 -77.6185 295.706 -75.2996 293.056C-72.02 289.842 -68.7404 286.628 -65.6595 284.176C-73.8759 284.475 -79.9721 282.885 -79.9721 282.885L-81.4962 282.488C-82.2582 282.289 -88.1885 283.184 -96.4049 283.483C-92.9922 286.001 -89.7781 289.28 -86.5641 292.56C-84.1121 295.641 -82.4221 298.523 -80.7322 301.405ZM-103.568 217.322C-111.487 207.118 -125.601 205.066 -135.342 204.967C-136.235 217.756 -134.908 237.634 -125.464 248.235C-117.545 258.439 -103.431 260.491 -93.6906 260.59C-93.5595 247.602 -94.8868 227.724 -103.568 217.322ZM-56.3899 217.416C-65.6654 228.019 -67.5849 247.865 -66.7553 260.289C-57.7769 260.188 -43.6302 258.994 -35.3154 248.955C-26.04 238.352 -24.1205 218.506 -24.95 206.082C-33.9285 206.183 -48.0752 207.377 -56.3899 217.416ZM-27.8741 438.892C-16.0811 424.877 -14.4934 400.062 -15.2902 384.391C-26.5547 383.895 -45.671 385.421 -56.3046 398.111C-67.8989 411.365 -69.6853 436.942 -68.8885 452.613C-57.624 453.109 -38.5078 451.583 -27.8741 438.892ZM-138.067 437.016C-127.696 450.3 -108.612 452.021 -97.1492 451.754C-96.4219 436.481 -97.1203 411.07 -109.016 397.388C-119.387 384.104 -138.471 382.383 -149.934 382.649C-150.661 397.923 -149.201 423.532 -138.067 437.016ZM-127.144 338.947C-119.225 349.151 -105.111 351.203 -95.3707 351.302C-94.4775 338.513 -95.8048 318.635 -105.248 308.034C-113.168 297.831 -127.281 295.778 -137.022 295.68C-137.153 308.667 -135.826 328.545 -127.144 338.947Z" fill="#454545"/>
<path d="M309.457 381.176C331.919 369.942 355.707 378.587 367.304 384.052L382.311 373.316C387.313 369.738 395.331 370.201 398.711 375.965C402.091 381.73 401.826 388.985 396.062 392.365L378.736 405.752C374.993 416.984 362.639 448.757 339.018 461.316C324.806 469.004 309.731 467.515 297.539 464.336C283.822 460.759 274.147 454.167 273.385 453.968C269.211 451.252 267.355 445.885 268.547 441.313C269.739 436.741 281.231 395.79 309.457 381.176ZM327.586 439.617C339.877 433.056 349.218 415.959 353.921 404.164C345.174 400.256 331.458 396.679 320.127 402.677C307.837 409.238 298.496 426.334 293.792 438.13C302.539 442.038 316.256 445.615 327.586 439.617Z" fill="#454545"/>
<path d="M-243.564 669.936C-157.324 679.402 -102.462 656.271 -80.502 600.145C-83.1527 597.826 -85.8034 595.508 -88.0567 591.665C-92 584.94 -93.2597 577.286 -91.2727 569.666C-88.4908 558.998 -80.0102 551.443 -70.4356 549.057C-69.4441 526.528 -72.5269 510.261 -72.5269 510.261C-74.1841 504.132 -69.3477 498.068 -63.2187 496.411C-57.0897 494.754 -51.0262 499.59 -49.369 505.719C-48.8057 506.68 -45.5569 525.432 -46.5812 551.208L-38.199 553.393C-36.1811 523.807 -38.2705 503.73 -39.0325 503.532C-39.7289 496.839 -35.0912 491.538 -28.9622 489.881C-22.2698 489.184 -16.9684 493.822 -15.3112 499.951C-14.7479 500.912 -12.128 525.196 -15.3381 559.354L-0.0975256 563.329C13.781 531.952 28.6877 512.238 28.8864 511.476C32.7621 505.976 40.2165 505.478 45.7166 509.354C51.2167 513.229 51.7145 520.684 47.8388 526.184C47.8388 526.184 35.2509 543.248 22.7633 569.29L31.1456 571.475C42.8384 548.481 54.8301 533.704 55.7909 533.141C60.2299 528.601 67.883 527.341 72.4224 531.78C76.9618 536.219 78.2215 543.873 73.7825 548.412C73.7825 548.412 61.9894 562.427 51.6548 583.334C52.2181 584.295 53.5435 585.454 54.1068 586.415C58.0501 593.14 59.3099 600.793 57.3228 608.413C54.7397 618.32 47.021 626.073 37.2478 629.222C28.0438 689.488 64.4264 737.225 145.07 771.275C150.968 773.627 153.95 780.915 151.599 786.813C149.446 791.948 143.681 795.328 137.585 793.738L136.061 793.341C23.8422 746.175 6.3752 678.954 13.1947 627.833L3.28836 625.25C-10.0904 682.799 -1.83529 735.41 27.2917 782.883C30.6716 788.648 28.8833 795.506 23.8809 799.084C20.9987 800.774 17.5532 801.504 14.5051 800.709C11.457 799.914 9.36958 798.556 7.6796 795.674C-25.2247 743.96 -34.5409 682.934 -19.5725 619.288L-27.1928 617.301C-45.2093 680.152 -82.9401 728.097 -137.106 757.92C-139.988 759.61 -143.235 759.577 -145.521 758.981C-148.569 758.186 -151.22 755.867 -152.91 752.985C-156.29 747.221 -153.541 739.799 -147.975 737.181C-98.8116 710.936 -65.7185 668.294 -50.0536 611.34L-59.96 608.757C-79.1707 657.461 -127.039 706.831 -248.001 693.194L-249.525 692.797C-254.86 691.406 -259.2 686.205 -258.373 679.91C-255.822 673.25 -250.621 668.91 -243.564 669.936ZM27.7368 606.396C28.2449 606.528 28.2449 606.528 27.7368 606.396C30.785 607.19 33.6672 605.5 34.462 602.452C34.8594 600.928 34.4948 599.206 33.9314 598.245C33.3681 597.284 32.6061 597.085 32.0428 596.125L-60.9247 571.883C-63.9728 571.088 -66.855 572.778 -67.6498 575.826C-68.0472 577.35 -67.6826 579.073 -67.1193 580.034C-66.556 580.994 -65.2306 582.154 -63.7065 582.551L27.7368 606.396Z" fill="#454545"/>
<path d="M362.693 329.95L340.694 333.166C338.972 333.531 337.448 333.134 335.924 332.736C331.351 331.544 328.137 328.264 327.044 323.096C326.347 316.404 330.985 311.102 337.114 309.445L359.112 306.229C365.805 305.533 371.305 309.408 372.763 316.299C373.46 322.992 369.385 329.254 362.693 329.95Z" fill="#454545"/>
</g>
<defs>
<clipPath id="clip0_93_14016">
<rect width="713.933" height="711.472" fill="#454545" transform="matrix(-0.967644 -0.25232 -0.25232 0.967644 454.352 180.139)"/>
</clipPath>
</defs>
</svg>
