<svg width="28" height="28" viewBox="0 0 28 28" fill="none" xmlns="http://www.w3.org/2000/svg">
<path fill-rule="evenodd" clip-rule="evenodd" d="M20.5215 7.02854C20.6423 7.03367 20.7615 7.08234 20.8537 7.17454C20.9983 7.3191 21.0358 7.53016 20.9663 7.70925L15.7416 22.6371C15.6739 22.8306 15.4949 22.9632 15.29 22.9715C15.0852 22.9799 14.896 22.8623 14.8127 22.675L11.9021 16.126L5.35309 13.2153C5.16575 13.1321 5.04821 12.9429 5.05657 12.7381C5.06493 12.5332 5.19748 12.3542 5.39098 12.2865L20.3275 7.05873C20.3544 7.04885 20.382 7.04136 20.4099 7.03626C20.447 7.02946 20.4844 7.02694 20.5215 7.02854ZM18.5974 8.72373L6.91169 12.8137L12.1703 15.1509L18.5974 8.72373ZM12.8773 15.8581L19.3042 9.4312L15.2143 21.1164L12.8773 15.8581Z" fill="#999999"/>
<path d="M14.0282 26.4719C7.1401 26.4719 1.55615 20.8881 1.55615 14H-0.443848C-0.443848 21.9926 6.03554 28.4719 14.0282 28.4719V26.4719ZM26.5002 14C26.5002 20.8881 20.9162 26.4719 14.0282 26.4719V28.4719C22.0208 28.4719 28.5002 21.9926 28.5002 14H26.5002ZM14.0282 1.52808C20.9162 1.52808 26.5002 7.11196 26.5002 14H28.5002C28.5002 6.00738 22.0208 -0.471924 14.0282 -0.471924V1.52808ZM14.0282 -0.471924C6.03554 -0.471924 -0.443848 6.00738 -0.443848 14H1.55615C1.55615 7.11196 7.1401 1.52808 14.0282 1.52808V-0.471924Z" fill="#999999"/>
</svg>
