<svg width="935" height="923" viewBox="0 0 935 923" fill="none" xmlns="http://www.w3.org/2000/svg">
<g opacity="0.03">
<path d="M647.181 110.272C652.284 112.07 655.559 117.047 655.191 122.444C653.539 142.294 649.106 161.81 642.019 180.422C684.982 201.892 715.53 260.365 716.884 263.078C719.411 268.083 718.157 274.167 713.857 277.756C689.946 297.339 662.394 311.994 632.792 320.866L634.911 324.086C643.157 336.528 647.801 351.01 648.331 365.93C648.865 380.845 645.255 395.617 637.912 408.617C645.052 414.069 651.243 420.66 656.231 428.133C666.124 443.03 670.772 460.794 669.458 478.625C668.14 496.459 660.93 513.349 648.959 526.632C651.301 529.242 653.462 532.017 655.425 534.922C664.109 548.227 668.693 563.792 668.62 579.682C668.541 595.574 663.804 611.088 654.99 624.309L657.372 627.929L657.375 627.933C673.291 652.12 675.092 682.97 662.103 708.849C649.114 734.731 623.302 751.716 594.393 753.405C565.485 755.094 537.867 741.234 521.951 717.047L519.569 713.427L519.566 713.422C503.937 716.286 487.811 714.501 473.188 708.282C458.562 702.067 446.085 691.694 437.302 678.454C435.383 675.469 433.668 672.356 432.182 669.137C419.275 673.389 405.504 674.315 392.145 671.835C390.334 687.129 387.025 702.199 382.253 716.84C380.47 722.004 375.43 725.32 369.977 724.918C367.406 724.737 312.181 720.559 281.206 694.085C268.599 705.328 254.585 714.891 239.517 722.528C234.614 724.898 228.734 723.689 225.169 719.573C220.724 714.568 182.316 668.907 190.397 630.139L191.489 626.106C180.994 624.722 170.652 622.355 160.602 619.037C155.438 617.254 152.122 612.214 152.524 606.761C153.629 600.557 157.739 550.275 186.21 531.54C202.537 522.733 221.47 520.039 239.602 523.941C240.962 510.193 245.866 497.035 253.831 485.743C250.699 482.372 247.841 478.762 245.28 474.938C231.24 453.906 228.015 427.457 236.587 403.665C242.369 386.826 253.576 372.378 268.451 362.59C283.327 352.801 301.029 348.226 318.782 349.578C323.344 336.156 331.394 324.19 342.107 314.913C336.628 304.474 329.753 294.838 321.67 286.26C300.31 264.413 272.303 250.287 242.038 246.098C235.424 245.114 230.852 238.958 231.832 232.339C232.813 225.721 238.972 221.153 245.591 222.133C271.979 226.209 297.037 236.443 318.732 252.001C333.286 227.169 356.576 208.658 384.05 200.085C400.701 194.832 418.36 193.586 435.584 196.451C426.212 180.928 422.345 162.696 424.603 144.707C432.481 106.942 485.711 81.5694 491.672 78.8049C496.474 76.5849 502.156 77.7569 505.685 81.6911C514.387 91.7856 522.066 102.721 528.607 114.334L535.048 110.096C573.611 85.4408 644.181 109.212 647.181 110.27L647.181 110.272ZM614.781 337.327L612.133 333.303L611.639 337.374C611.394 339.408 611.248 341.377 610.934 343.315C610.624 345.251 610.452 346.085 610.341 347.451L609.343 352.723L608.65 356.493L607.584 361.231L606.831 364.468L605.769 368.772L605.12 371.072L603.924 375.173L603.615 376.239L602.015 381.475L602.022 381.477C601.633 382.332 601.149 383.133 600.573 383.872L599.997 384.972C599.156 385.661 598.245 386.261 597.28 386.76C595.185 388.106 592.705 388.728 590.22 388.523L587.82 388.377L584.346 387.921L583.245 387.783L578.671 387.189L576.636 386.944L569.762 385.701L568.159 385.455L560.438 386.204L556.432 385.377C558.275 389.03 559.851 392.814 561.143 396.695C561.672 397.499 561.698 398.634 561.96 399.472L561.963 399.476C563.256 403.543 564.257 407.706 564.963 411.92L565.428 412.625L565.831 417.405L565.828 417.401C565.943 418.22 566.005 419.048 566.016 419.877L566.059 423.885L566.523 424.59C578.546 424.814 590.345 421.323 600.322 414.604L601.229 414.007L601.224 414.01C602.968 413.011 604.648 411.906 606.255 410.7L607.764 409.707C609.398 408.11 610.933 406.424 612.37 404.655L612.873 404.324C620.267 394.805 624.438 383.185 624.779 371.136C625.121 359.087 621.616 347.246 614.78 337.327L614.781 337.327ZM481.855 339.301L477.831 341.95L483.412 341.882L483.404 341.88C482.838 341.049 482.317 340.189 481.853 339.297L481.855 339.301ZM433.878 357.317C433.609 356.966 433.364 356.594 433.148 356.208L432.817 355.705L431.428 353.594C431.21 353.164 430.944 352.76 430.633 352.385C429.98 351.521 429.383 350.614 428.845 349.668L427.654 347.858L425.535 344.637L424.077 342.423L421.627 338.7L421.63 338.704C421.024 337.9 420.471 337.06 419.975 336.189L417.262 332.066L412.627 325.023L410.641 322.005L410.638 322C410.271 321.334 409.848 320.692 409.382 320.091L407.813 319.682C392.559 316.338 376.599 319.432 363.7 328.235L361.283 329.825C349.534 338.477 341.547 351.302 338.955 365.662C336.366 380.019 339.371 394.828 347.362 407.039L348.819 409.253C351.85 413.547 355.526 417.352 359.704 420.543C362.959 423.074 366.473 425.254 370.191 427.05C370.522 427.553 371.623 427.691 372.525 427.966L372.52 427.969C375.78 429.46 379.19 430.602 382.688 431.37L384.125 431.577C389.042 432.409 394.043 432.653 399.018 432.301C401.496 432.125 403.954 431.762 406.374 431.213L407.483 430.483C409.648 429.978 411.779 429.342 413.872 428.582C415.47 428.066 417.026 427.428 418.525 426.673L419.634 425.943C421.614 424.795 423.527 423.536 425.37 422.169L426.075 421.705L426.07 421.708C429.391 419.369 432.473 416.716 435.271 413.78L437.491 411.02L437.495 411.017C441.861 405.846 445.24 399.909 447.453 393.51L449.031 392.181C449.669 390.442 450.181 388.657 450.566 386.846C451.325 382.639 451.652 378.363 451.547 374.094C451.327 369.682 450.625 365.309 449.453 361.054L448.726 359.949L447.316 360.877L447.313 360.872C442.532 362.654 437.146 361.229 433.877 357.317L433.878 357.317ZM380.129 474.576L378.138 477.469C376.319 479.967 374.333 482.426 372.282 484.786L369.564 486.574C367.861 488.377 366.009 490.033 364.026 491.519L350.542 500.392L354.05 505.723L354.91 507.03C356.235 509.376 357.716 511.627 359.346 513.772L360.537 515.582C361.595 517.19 363.526 518.372 364.991 519.719C365.32 520.12 365.609 520.561 365.851 521.026C366.651 520.422 367.495 519.867 368.366 519.371L370.477 517.982C372.407 517.001 374.384 516.132 376.407 515.373L378.849 514.487L384.808 512.587L387.551 511.934C389.491 511.449 391.456 511.07 393.437 510.803L396.21 510.42C398.183 510.132 400.286 510.042 402.228 509.923L405.036 509.807L411.412 510.078L413.815 510.228L413.817 510.22C416.421 510.47 419.005 510.887 421.559 511.472L422.661 511.61C425.581 512.243 428.468 513.04 431.297 514.004C434.229 514.958 437.029 516.141 439.66 517.293L441.07 516.365C442.856 514.482 444.537 512.507 446.118 510.45L448.474 507.458C450.5 504.355 452.251 501.078 453.707 497.668L452.34 497.125L449.241 495.702L447.341 494.79L447.348 494.791C445.667 494.057 444.039 493.197 442.485 492.224C442.485 492.224 439.889 490.47 438.594 489.597L435.301 487.439C434.308 485.93 432.407 485.018 430.911 483.839C429.415 482.661 429.05 482.322 428.254 481.552C427.455 480.778 425.335 478.427 423.904 476.917C422.477 475.403 422.846 475.309 422.313 474.5L422.318 474.497C420.421 471.948 418.678 469.298 417.087 466.547C414.647 462.791 412.525 458.832 410.745 454.719C408.647 455.141 406.526 455.429 404.39 455.586L400.379 456.063C396.679 456.348 392.958 456.338 389.257 456.025C388.137 459.105 386.851 462.12 385.391 465.057L383.804 468.122C382.72 470.348 381.49 472.509 380.124 474.58L380.129 474.576ZM488.745 588.373L490.55 588.485C492.805 588.88 495.101 589.063 497.395 589.027L500 589.044L499.997 589.04C502.205 588.932 504.406 588.688 506.584 588.31L508.721 588.056L508.724 588.06C511.593 587.511 514.424 586.755 517.19 585.804C525.659 582.683 533.304 577.653 539.522 571.109C541.507 569.03 543.31 566.782 544.91 564.39L546.26 562.06L549.197 556.664L550.414 554.132L550.417 554.136C551.243 552.036 551.946 549.886 552.524 547.704L553.136 546.001L552.474 544.995C550.973 544.251 549.473 543.507 548.079 542.699C545.051 540.914 542.15 538.922 539.396 536.731L537.801 535.618L537.405 535.016C535.479 533.4 533.784 531.49 532.06 529.741C530.332 527.995 530.001 527.923 529.171 526.886L529.164 526.884C526.448 523.902 523.965 520.715 521.739 517.352C519.982 514.653 518.385 511.855 516.946 508.972C516.467 507.981 516.036 506.964 515.661 505.924C514.732 504.063 513.907 502.154 513.193 500.198L512.729 499.493L511.624 500.22L505.333 502.055L502.693 502.64L497.542 503.577L494.601 503.929L489.553 504.367L486.582 504.449L481.57 504.285L480.099 504.242L479.524 505.773L477.76 510.106L476.337 513.206L474.209 517.2L472.455 520.227L469.926 524.053L467.974 526.78L464.745 530.636L463.03 532.627L463.494 533.332L463.485 533.338C465.25 534.983 466.922 536.722 468.502 538.546L469.628 540.257C471.587 542.901 473.401 545.659 475.054 548.504C478.373 553.567 481.047 559.029 483.007 564.756C483.797 566.475 484.477 568.242 485.045 570.044C485.14 570.316 485.3 570.558 485.509 570.749C485.999 572.589 486.455 574.593 486.944 576.872L487.541 577.779L487.538 577.775C488.152 581.026 488.579 584.305 488.818 587.604L489.282 588.309L488.745 588.373ZM540.751 433.624C541.281 430.938 541.614 428.216 541.732 425.48C541.782 424.989 541.794 424.499 541.775 424.01C541.966 416.211 540.545 408.457 537.602 401.236C536.337 397.993 534.729 394.894 532.817 391.988C531.129 389.423 529.25 386.998 527.177 384.738C525.181 382.575 523.003 380.585 520.668 378.787C508.004 368.493 491.566 364.062 475.444 366.587C475.444 366.587 475.439 367.89 475.568 368.526C475.749 371.433 475.933 374.343 475.882 377.112C475.834 379.886 475.902 379.119 475.795 380.052C475.597 383.839 475.137 387.611 474.427 391.335C473.987 393.6 473.383 395.832 472.617 398.003L471.456 402.371C467.984 412.824 462.274 422.387 454.719 430.402L453.915 430.932L452.2 432.922L452.196 432.925C450.497 434.726 448.641 436.385 446.658 437.87L445.553 438.597C444.445 439.467 443.264 440.245 442.031 440.914L433.277 446.675C434.363 449.108 435.621 451.459 437.039 453.712C441.877 461.162 448.455 467.324 456.209 471.665C458.598 473.035 461.081 474.245 463.635 475.281C466.379 476.34 469.198 477.181 472.074 477.805C486.125 480.975 500.867 478.523 513.133 470.972L515.244 469.582C518.131 467.651 520.851 465.475 523.37 463.083C532.022 455.26 538.086 444.981 540.749 433.624L540.751 433.624ZM636.038 441.278C632.515 435.943 628.142 431.225 623.094 427.3L619.973 429.354C617.832 430.982 615.577 432.465 613.235 433.788L611.021 435.245C601.013 441.818 589.648 446.046 577.777 447.608L577.175 448.004L570.193 448.563L568.087 448.648L562.373 448.514L560.804 448.536L559.99 450.372C558.919 453.233 557.675 456.027 556.266 458.738L554.476 461.936L554.473 461.932C553.14 464.257 551.686 466.508 550.126 468.686L548.174 471.412L548.17 471.415C545.812 474.357 543.262 477.142 540.538 479.752C538.435 481.838 536.204 483.788 533.857 485.59L533.151 486.055L533.813 487.061C534.436 489.103 535.158 491.08 535.95 493.153L537.141 494.963C538.286 497.409 539.604 499.773 541.074 502.036C544.168 506.797 547.986 511.043 552.389 514.634C554.227 516.146 556.186 517.509 558.244 518.71C559.474 519.484 560.772 520.361 562.104 521.075L562.101 521.07C564.852 522.511 567.717 523.715 570.67 524.662C586.849 530.802 604.962 529.149 619.765 520.18L624.594 517.003C635.668 508.126 642.988 495.405 645.11 481.374C647.231 467.343 643.992 453.03 636.039 441.277L636.038 441.278ZM635.433 547.934C634.001 545.787 632.415 543.747 630.692 541.824L629.385 542.684C626.135 544.591 622.771 546.277 619.298 547.738L617.69 548.796C613.775 550.31 609.746 551.513 605.643 552.399L603.033 552.815C599.008 553.604 594.93 554.067 590.835 554.213C586.583 554.256 582.343 553.963 578.144 553.334L576.773 553.226C575.77 557.053 574.474 560.795 572.898 564.426L571.475 567.525L571.479 567.522C570.168 570.264 568.692 572.922 567.055 575.48L565.132 578.476C560.818 585.261 555.288 591.198 548.827 595.983L545.908 597.904L542.456 599.886L536.621 603.726C537.735 606.192 539.014 608.575 540.451 610.867C542.347 613.738 544.534 616.406 546.986 618.821C548.825 620.785 550.803 622.617 552.897 624.303C554.43 625.469 556.041 626.528 557.722 627.468C559.161 628.491 560.7 629.363 562.317 630.07C563.646 630.779 565.081 631.424 566.514 632.065C566.994 632.335 567.508 632.53 568.048 632.645C570.225 633.42 572.437 634.082 574.682 634.619C592.455 638.339 610.94 633.487 624.598 621.526C626.371 619.935 628.054 618.248 629.642 616.475C637.961 607.255 643.032 595.557 644.08 583.18C645.128 570.803 642.09 558.422 635.433 547.934L635.433 547.934ZM621.304 719.711C633.649 711.563 642.347 698.939 645.573 684.503C648.791 670.066 646.281 654.945 638.571 642.318C634.558 645.609 630.206 648.473 625.596 650.857L623.381 652.314L618.691 654.39C617.575 654.925 616.411 655.356 615.211 655.675L611.462 656.991L603.773 658.883L600.097 659.429L596.052 660.07L592.445 660.281L588.069 660.419L584.697 660.333L582.179 660.252L581.298 662.415L579.875 665.945L578.284 669.445L576.422 672.974L574.565 676.069L572.239 679.762L570.42 682.26L567.491 685.918L565.44 688.278L562.313 691.636L555.877 695.871C551.924 699.116 547.643 701.933 543.099 704.28C551.527 716.569 564.432 725.07 579.055 727.954C593.673 730.841 608.84 727.883 621.306 719.711L621.304 719.711ZM522.889 687.584L522.892 687.589C525.144 686.834 527.359 685.956 529.518 684.953L537.365 679.79C539.14 678.77 540.856 677.641 542.494 676.415L543.101 676.016C549.869 670.094 555.152 662.666 558.528 654.33L557.028 653.586L554.693 652.67L552.096 651.354L550.196 650.442L550.2 650.439C547.989 649.28 545.848 647.992 543.776 646.594C542.858 646.021 541.969 645.402 541.115 644.741C540.32 643.533 538.454 642.888 537.19 641.847L537.194 641.844C537.109 641.617 536.973 641.41 536.795 641.238C535.737 639.63 533.472 638.378 532.243 637.166L531.383 635.859L531.386 635.863C531.07 635.492 530.804 635.087 530.591 634.655C530.329 634.345 530.107 634.008 529.929 633.649L529.399 632.845C526.67 629.872 524.156 626.705 521.872 623.381C519.434 619.617 517.312 615.659 515.527 611.549L515.024 611.88C512.26 612.334 509.469 612.632 506.666 612.765C504.895 612.919 503.089 613.246 501.352 613.237L501.356 613.234C498.229 613.245 495.104 613.035 492.005 612.609C490.634 612.501 489.232 612.562 487.8 612.352L487.323 613.818C486.225 617.803 484.839 621.702 483.177 625.486L482.472 625.95C480.819 629.464 478.899 632.845 476.733 636.067L475.115 638.431C472.682 641.854 469.983 645.078 467.04 648.07L465.428 649.131C462.719 651.744 459.835 654.169 456.799 656.392L455.492 657.252C456.752 659.5 458.168 661.651 459.73 663.693C466.32 673.903 476.01 681.732 487.378 686.038C498.747 690.335 511.188 690.882 522.892 687.59L522.889 687.584ZM434.039 642.392C435.651 641.486 437.196 640.47 438.665 639.348C450.605 631.504 459.146 619.454 462.585 605.586C463.229 602.613 463.702 599.605 464.008 596.578C464.306 593.511 464.3 590.419 463.996 587.356L463.614 584.144C463.26 581.532 462.72 578.952 461.993 576.419L461.529 575.714C461.167 574.626 460.749 573.55 460.278 572.501C458.85 568.395 456.945 564.473 454.604 560.807C452.508 557.681 450.108 554.767 447.441 552.113C444.082 548.73 440.306 545.789 436.199 543.362C432.667 541.232 428.918 539.496 425.008 538.181C421.375 537.032 417.648 536.202 413.864 535.712L412.427 535.505L411.494 535.398C400.978 534.46 390.405 536.429 380.93 541.093C379.119 542.137 377.372 543.286 375.697 544.536L373.586 545.925C371.098 547.749 368.764 549.768 366.604 551.962C355.008 563.712 349.15 579.951 350.567 596.395C350.787 598.812 351.165 601.215 351.694 603.584C353.069 610.505 355.789 617.095 359.694 622.97C360.821 625.016 362.104 626.965 363.536 628.809C366.707 632.483 370.373 635.697 374.435 638.359L375.897 639.27C377.427 640.284 378.79 641.26 380.355 642.103C397.084 651.131 417.21 651.238 434.038 642.39L434.039 642.392ZM199.447 551.663C186.969 559.874 180.717 583.451 178.222 598.5C188.53 601.224 199.138 602.623 209.797 602.664C214.289 602.496 218.498 604.843 220.717 608.744C222.937 612.664 222.778 617.5 220.308 621.268C217.567 625.28 215.637 629.781 214.618 634.532C210.563 653.78 226.732 680.767 237.901 695.766C250.848 688.533 262.602 679.338 272.736 668.518C275.089 665.804 278.528 664.281 282.117 664.366C285.725 664.438 289.111 666.123 291.34 668.962C306.09 688.091 342.015 696.46 362.811 699.355C365.874 688.193 368.023 676.797 369.229 665.287L366.713 661.464C365.449 660.854 364.417 659.951 363.252 659.275C362.087 658.6 360.955 657.762 359.826 656.915C358.694 656.076 356.833 654.559 355.337 653.381L352.379 650.861L352.38 650.853C350.816 649.366 349.345 647.785 347.965 646.119C347.333 645.286 346.76 644.415 346.245 643.505C344.327 640.924 342.56 638.238 340.948 635.456C338.607 631.918 336.587 628.182 334.904 624.295L334.177 623.19L334.174 623.185C332.392 619.44 331.017 615.512 330.069 611.469L329.54 610.665L327.27 610.717L322.089 610.953L315.51 610.815L310.471 610.385L310.467 610.388C308.322 610.132 306.192 609.751 304.095 609.245L299.19 608.148C297.053 607.533 295.023 606.854 293.089 606.105C291.489 605.62 289.927 605.007 288.42 604.273C286.421 603.426 284.456 602.415 282.492 601.397L278.196 599.035C276.266 597.853 274.469 596.442 272.509 594.99C270.545 593.54 270.08 593.274 268.885 592.328C267.686 591.386 265.098 588.764 263.304 586.919C261.511 585.074 261.915 584.808 260.48 584.163L260.483 584.167C257.847 581.12 255.402 577.914 253.162 574.567L248.394 567.322L246.937 565.108C245.811 563.397 245.287 561.289 244.568 559.317C243.989 558.545 243.458 557.737 242.978 556.9C242.355 554.858 241.732 552.815 241.143 550.609L240.686 548.605C226.995 544.877 212.439 545.959 199.447 551.664L199.447 551.663ZM264.103 537.953C265.006 546.671 267.955 555.055 272.708 562.425C274.075 564.834 275.603 567.156 277.275 569.365C277.804 570.169 278.333 570.973 279.368 571.45C280.4 571.923 281.823 573.87 283.155 575.015C284.487 576.159 285.119 576.464 286.014 577.169C287.153 578.087 288.343 578.938 289.571 579.727C290.298 580.832 292.065 581.111 293.23 581.786L296.459 583.407L296.466 583.408C298.283 584.086 300.144 584.644 302.034 585.081L304.966 586.035L309.936 587.231L312.537 587.682L317.912 588.181L320.685 588.229L325.866 587.993L326.773 587.396L326.979 586.398C327.203 582.562 327.727 578.742 328.549 574.983L329.302 571.745L329.305 571.75C330.211 568.264 331.326 564.833 332.639 561.479L333.349 559.711L333.352 559.716C336.822 551.569 341.632 544.072 347.58 537.518L348.384 536.989C348.327 536.795 348.212 536.62 348.053 536.486C346.161 534.706 344.365 532.857 342.607 530.84L341.481 529.129L337.242 522.688L336.184 521.08L334.464 518.466L334.469 518.463C332.667 515.549 331.028 512.54 329.542 509.45L327.667 509.673L327.675 509.675C324.149 510.283 320.587 510.651 317.009 510.779C316.205 511.308 314.804 510.929 313.599 510.86L313.604 510.857C309.303 510.855 305.002 510.55 300.748 509.944C296.559 509.271 292.436 508.218 288.439 506.8L285.107 505.678C281.787 504.399 278.553 502.917 275.412 501.244C274.811 500.996 274.231 500.702 273.68 500.363C266.122 511.355 262.729 524.684 264.102 537.952L264.103 537.953ZM259.149 411.454C253.159 428.165 255.427 446.723 265.264 461.495C268.577 466.569 272.705 471.061 277.474 474.797C279.36 476.343 281.371 477.717 283.496 478.912C298.185 487.726 316.064 489.464 332.173 483.645C336.392 482.182 340.401 480.175 344.101 477.669L344.905 477.14C348.237 474.819 351.316 472.162 354.106 469.213C356.222 466.893 358.162 464.413 359.898 461.797L361.713 459.302C362.895 457.372 363.944 455.24 364.989 453.111L365.668 451.512L364.301 450.97L363.97 450.467C361.905 449.521 359.906 448.674 357.938 447.658C355.972 446.647 356.102 446.845 355.174 446.304L353.777 445.492C353.05 444.387 351.48 443.978 349.719 442.826C347.955 441.683 346.628 440.535 345.496 439.696C339.757 435.298 334.711 430.065 330.526 424.175C329.612 423.001 328.793 421.756 328.076 420.452C326.043 417.303 324.22 414.024 322.625 410.632L321.301 408.62C319.828 405.296 318.586 401.872 317.583 398.373L316.723 397.066C315.911 393.816 315.282 390.523 314.845 387.199L314.526 384.963C314.163 381.321 314.018 377.658 314.09 374C313.9 373.79 313.746 373.556 313.628 373.299C301.732 373.326 290.137 376.998 280.395 383.821C270.654 390.643 263.241 400.29 259.148 411.453L259.149 411.454ZM391.593 223.378C368.514 230.796 349.227 246.899 337.81 268.283L339.199 270.394L339.202 270.398C348.272 279.986 356.028 290.735 362.257 302.373C373.892 296.989 386.635 294.435 399.448 294.911C397.245 286.996 396.701 278.716 397.855 270.581C404.265 250.253 417.779 232.917 435.929 221.738C421.252 218.497 405.988 219.06 391.593 223.377L391.593 223.378ZM535.044 143.401C532.48 146.948 528.202 148.829 523.857 148.31C519.34 147.735 515.529 144.663 514.016 140.368C508.812 127.746 501.888 115.903 493.449 105.172C477.428 114.131 452.005 131.581 447.955 149.526C445.034 163.272 453.757 184.636 470.493 206.783L525.378 218.103L566.655 180.27C569.025 178.06 572.175 176.882 575.417 176.995C578.651 177.107 581.713 178.503 583.922 180.873C588.521 185.808 588.254 193.54 583.319 198.139L554.562 224.992L600.371 234.355C606.855 235.708 611.025 242.045 609.705 248.539C609.093 251.658 607.279 254.409 604.649 256.192C601.985 257.964 598.723 258.611 595.586 257.972L549.978 248.914L565.531 284.385C567.901 289.815 565.961 296.17 560.964 299.355L559.253 300.481C556.292 301.831 552.911 301.925 549.882 300.745C546.845 299.564 544.421 297.201 543.156 294.203L520.686 242.527L465.801 231.207C441.165 245.256 424.7 261.426 421.943 275.205C420.66 285.736 422.648 296.406 427.638 305.77C430.243 311.361 433.262 316.751 436.665 321.894C439.911 326.826 442.822 331.25 445.577 334.341L448.694 332.29L448.691 332.286C459.439 326.172 469.345 318.688 478.156 310.013C481.112 306.24 486.024 304.579 490.659 305.783C495.298 306.985 498.784 310.825 499.536 315.557C500.54 321.396 502.741 326.97 505.985 331.929C513.911 341.736 524.451 349.096 536.389 353.153C551.114 358.892 566.457 362.872 582.117 365.022C587.138 347.906 589.29 330.069 588.48 312.247C588.202 308.626 589.574 305.077 592.212 302.582C592.745 302.09 593.36 301.685 594.022 301.391C594.56 300.966 595.131 300.591 595.734 300.265L597.041 299.405C598.584 298.923 600.216 298.783 601.821 299.001C603.523 299.181 605.227 299.354 607.131 299.401C638.426 300.293 675.213 276.227 690.984 264.697C678.452 243.247 651.652 206.236 622.671 197.915L622.668 197.91C619.171 196.909 616.315 194.379 614.898 191.032C613.477 187.68 613.649 183.872 615.36 180.661C623.109 164.601 628.19 147.381 630.393 129.678C608.513 123.602 568.473 116.647 547.484 129.88C542.457 133.49 538.224 138.091 535.044 143.401L535.044 143.401Z" fill="white"/>
<path d="M641.367 259.855C639.524 262.414 636.802 264.205 633.723 264.886C632.135 265.094 630.529 265.089 628.946 264.855C624.186 263.843 620.505 260.067 619.616 255.284C619.284 253.732 619.261 252.132 619.548 250.572C619.937 249.042 620.59 247.589 621.475 246.273C624.183 242.231 629.058 240.22 633.831 241.173C635.376 241.527 636.837 242.182 638.13 243.101C642.172 245.809 644.183 250.684 643.229 255.457C642.818 257.002 642.187 258.479 641.367 259.855L641.367 259.855Z" fill="white"/>
</g>
</svg>
