<svg width="1149" height="1148" viewBox="0 0 1149 1148" fill="none" xmlns="http://www.w3.org/2000/svg">
<g opacity="0.03">
<g clip-path="url(#clip0_93_13626)">
<path d="M483.534 724.743C498.17 724.133 510.594 718.235 520.436 710.367C535.814 698.074 544.307 682.212 545.045 680.614L545.169 679.507L546.399 678.523C547.629 677.54 581.955 646.068 572.745 608.061C565.869 579.279 536.975 557.007 523.942 548.27L522.477 521.212C522.11 514.448 516.454 509.895 509.69 510.261C502.925 510.628 498.373 516.283 498.739 523.048L500.205 550.106C497.621 553.18 493.806 557.237 489.745 563.508C489.992 561.294 489.132 558.957 488.887 556.128C483.239 531.405 459.51 513.071 447.46 505.564L445.379 478.998C445.013 472.233 439.357 467.68 432.593 468.047C425.828 468.413 421.275 474.069 421.642 480.833L423.722 507.4C421.877 508.875 419.908 511.457 417.324 514.53C417.818 510.103 417.205 505.552 415.976 501.493C410.452 475.663 384.508 457.082 373.565 449.699L364.226 427.926C361.523 422.022 355.129 419.068 348.733 421.156C342.828 423.859 339.874 430.254 341.962 436.65L348.474 453.625C340.107 463.338 324.848 484.609 330.496 509.332C331.233 512.775 332.585 515.728 333.936 518.68C330.616 518.31 327.295 517.939 324.467 518.184C299.746 518.79 283.012 538.216 275.628 549.159L257.427 546.569C250.786 545.828 245.25 550.254 244.509 556.895C243.769 563.536 248.194 569.072 254.835 569.813L276.357 572.773C284.963 581.016 311.151 602.426 338.701 601.576C343.744 601.578 347.803 600.349 351.862 599.121C349.893 601.703 347.924 604.285 346.571 606.375L320.741 611.9C314.468 612.881 310.407 619.152 311.389 625.425C312.37 631.698 318.641 635.759 324.914 634.777L350.128 629.745C360.333 638.727 384.554 657.676 410.382 657.194C412.596 657.441 414.933 656.581 417.762 656.336C413.332 660.885 410.01 665.557 408.533 668.754L382.211 673.664C375.939 674.645 371.878 680.916 372.859 687.189C373.841 693.462 380.111 697.523 386.384 696.541L411.599 691.508C424.405 702.461 454.282 725.964 483.554 724.745L483.534 724.743ZM456.881 632.122C462.664 625.483 465.003 619.581 465.618 619.089L466.849 618.106C467.464 617.614 471.893 613.065 476.569 606.302C476.691 610.238 477.427 613.682 477.549 617.618C478.654 622.784 480.374 627.458 483.201 632.255C478.281 631.147 472.747 630.53 467.705 630.528C463.769 630.649 460.325 631.386 456.881 632.122V632.122ZM393.322 563.962C393.405 563.225 393.405 563.225 393.322 563.962L394.553 562.979C395.168 562.487 398.982 558.43 404.15 552.283C403.656 556.71 404.269 561.261 405.498 565.32C406.234 568.764 407.586 571.716 408.938 574.668C405.617 574.298 402.297 573.928 399.468 574.173C394.425 574.171 390.366 575.399 386.307 576.628C389.877 569.742 392.696 564.463 393.322 563.962V563.962ZM466.378 562.023C469.448 574.692 461.941 586.742 456.65 593.996C446.322 586.121 431.445 573.816 428.499 560.04C425.429 547.371 432.936 535.321 438.227 528.067C448.678 534.835 462.94 547.632 466.378 562.023ZM550.236 613.956C554.534 630.684 543.828 646.299 536.692 655.029C523.658 646.292 505.339 629.681 500.55 612.338C496.251 595.61 506.957 579.995 514.094 571.265C527.127 580.002 546.061 596.121 550.236 613.956ZM355.711 504.299C352.641 491.63 360.148 479.58 365.439 472.325C375.767 480.201 390.644 492.505 393.591 506.281C396.66 518.95 389.153 531 383.862 538.254C373.411 531.486 358.657 518.075 355.711 504.299V504.299ZM298.5 560.113C303.791 552.859 313.88 542.778 327.409 542.045C341.43 541.928 357.66 552.142 367.988 560.017C362.697 567.271 352.608 577.353 339.079 578.085C324.935 579.31 308.213 568.48 298.5 560.113V560.113ZM370.796 615.24C376.087 607.986 386.176 597.904 399.09 597.663C413.111 597.546 429.341 607.76 439.669 615.635C434.378 622.89 424.289 632.971 411.375 633.212C397.231 634.436 380.509 623.607 370.796 615.24ZM468.434 654.142C486.39 653.903 507.293 667.439 519.096 677.16C512.451 686.504 499.655 700.766 482.805 701.129C464.849 701.368 443.946 687.831 432.143 678.11C438.788 668.766 451.584 654.504 468.434 654.142V654.142Z" fill="white"/>
<path d="M250.187 505.98C278.097 527.022 317.702 518.551 319.424 518.182C321.146 517.814 322.868 517.446 324.714 515.971C327.789 513.512 329.266 510.315 329.145 506.379C328.777 504.657 326.087 463.455 298.668 443.029C275.922 425.925 244.805 428.618 233.489 429.598L215.907 416.431C210.743 412.494 203.364 413.352 199.426 418.516C195.488 423.68 196.346 431.06 201.51 434.997L219.093 448.164C219.584 448.779 220.2 448.287 220.691 448.902C222.039 461.939 229.039 489.614 250.187 505.98V505.98ZM283.78 460.979C295.706 469.593 301.235 485.338 303.444 495.669C292.744 496.157 276.018 495.413 264.707 486.307C252.78 477.694 247.252 461.949 245.042 451.617C255.742 451.129 271.853 452.365 283.78 460.979V460.979Z" fill="white"/>
<path d="M316.152 391.749C320.209 395.563 327.466 395.812 331.771 392.37L333.002 391.387C337.431 386.838 337.188 378.967 332.639 374.537L316.411 359.28C311.247 355.343 303.375 355.586 298.946 360.135C294.517 364.684 294.76 372.555 299.308 376.984L316.152 391.749V391.749Z" fill="white"/>
<path d="M444.955 301.894L446.185 300.911C450.491 297.469 452.339 290.951 449.02 285.538L437.712 266.348C434.394 260.935 427.876 259.088 421.972 261.791C416.559 265.11 414.096 272.119 417.907 278.147L429.214 297.338C431.918 303.242 438.927 305.705 444.955 301.894Z" fill="white"/>
<path d="M205.521 559.832C208.842 560.202 211.794 558.85 213.639 557.375C216.1 555.408 217.577 552.211 217.947 548.891C218.687 542.249 214.262 536.713 207.621 535.973L185.484 533.505C178.843 532.764 173.307 537.189 172.566 543.831C171.826 550.472 176.251 556.008 182.892 556.748L205.521 559.832V559.832Z" fill="white"/>
<path d="M573.226 317.317C574.456 316.334 575.81 314.243 576.549 312.645C577.287 311.046 594.274 274.279 579.896 242.42C568.591 218.187 543.137 205.263 531.332 200.585C530.84 199.97 531.455 199.478 530.964 198.863L521.993 178.813C519.29 172.908 512.28 170.446 506.376 173.149C500.471 175.853 498.009 182.862 500.712 188.767L509.683 208.817C505.743 219.024 496.262 248.783 508.427 275.353C522.805 307.213 562.402 318.912 563.509 319.035C566.215 319.897 570.15 319.776 573.226 317.317V317.317ZM528.601 265.276C522.826 251.745 525.169 235.757 528.002 225.428C537.593 229.859 551.733 238.719 557.509 252.25C563.284 265.781 560.941 281.769 558.108 292.099C548.517 287.667 534.377 278.807 528.601 265.276V265.276Z" fill="white"/>
<path d="M463.226 444.568C466.055 444.323 468.392 443.463 470.852 441.496C473.313 439.529 474.666 437.439 475.037 434.118C475.775 432.52 481.94 392.305 459.689 365.731C442.356 345.308 414.44 339.394 401.649 338.528L386.898 320.074C382.964 315.153 375.216 314.289 370.295 318.223C365.374 322.157 364.51 329.905 368.444 334.826L382.212 352.049C380.978 363.118 379.736 394.356 398.545 416.625C420.18 443.69 461.001 444.33 463.226 444.568V444.568ZM440.62 380.974C449.963 392.662 451.556 408.528 451.429 419.72C440.975 417.994 424.743 412.822 415.892 401.75C406.549 390.062 404.956 374.196 405.084 363.004C415.537 364.73 431.77 369.902 440.62 380.974Z" fill="white"/>
<path d="M667.551 335.679L656.473 359.657C654.136 360.517 651.799 361.377 648.231 363.221C650.323 359.532 651.924 355.228 653.524 350.924C660.422 324.238 645.183 295.084 639.161 283.767L641.014 262.121C641.754 255.48 637.329 249.944 630.688 249.204C624.047 248.463 618.51 252.889 617.77 259.53L616.287 277.854C603.986 282.646 581.352 294.69 575.316 318.671C574.946 321.991 574.084 324.697 573.714 328.017C571.132 326.048 568.55 324.08 565.353 322.603C542.481 311.648 518.372 321.847 507.054 327.869L491.931 317.778C486.767 313.84 478.772 315.19 475.326 320.969C471.388 326.133 472.738 334.128 478.517 337.574L497.698 351.479C502.49 363.779 514.9 393.178 538.879 404.257C543.183 405.857 547.487 407.458 551.299 408.443C547.732 410.286 544.78 411.638 542.934 413.113L517.479 405.232C510.961 403.385 504.933 407.195 502.594 413.098C500.747 419.615 504.557 425.643 510.46 427.982L535.915 435.863C541.199 448.779 553.241 476.456 576.112 487.411C578.203 488.765 580.416 489.011 583.122 489.873C576.726 491.962 571.313 495.28 567.746 497.124L541.675 489.735C535.157 487.887 529.129 491.698 526.79 497.6C524.943 504.118 528.753 510.146 534.656 512.485L560.726 519.874C566.378 534.512 581.124 568.093 608.3 580.648C643.345 598.003 681.604 571.452 682.834 570.469L684.065 569.486L685.171 569.609C686.278 569.732 703.621 564.943 719.615 552.158C729.457 544.29 737.947 533.471 741.765 519.329C749.525 489.937 733.057 456.724 725.56 443.562L736.023 420.075C738.362 414.172 735.782 407.161 729.879 404.822C723.977 402.483 716.966 405.063 714.627 410.965L704.04 435.559C699.981 436.787 695.307 438.507 689.894 441.826C691.248 439.736 691.495 437.522 692.357 434.817C699.007 410.345 685.367 381.929 678.853 369.997L689.316 346.51C691.655 340.607 689.075 333.596 683.172 331.257C676.893 327.185 669.881 329.765 667.542 335.668L667.551 335.679ZM653.474 482.029C652.365 486.948 651.748 492.483 651.746 497.525C648.181 494.326 643.509 491.004 638.713 488.788C635.516 487.311 631.704 486.325 627.891 485.34C636.133 481.777 641.054 477.843 641.546 478.458L642.776 477.475C643.391 476.983 649.664 476.001 657.414 471.823C655.937 475.02 654.459 478.217 653.474 482.029V482.029ZM559.531 430.092C567.773 426.529 581.18 421.86 592.862 427.645C605.65 433.553 615.483 450.899 619.783 462.584C611.541 466.148 598.134 470.816 586.452 465.031C574.155 459.738 564.323 442.393 559.531 430.092ZM611.439 411.787C608.857 409.818 606.275 407.849 603.078 406.372C598.774 404.772 594.47 403.171 590.658 402.186C598.284 399.114 603.205 395.18 603.205 395.18L604.436 394.197C605.051 393.705 610.832 392.108 618.458 389.037C616.366 392.725 614.765 397.029 613.165 401.333C612.18 405.146 611.809 408.466 611.439 411.787V411.787ZM598.066 325.69C601.146 313.146 613.202 305.526 622.058 301.47C628.081 312.788 634.961 331.484 630.651 345.012C627.571 357.555 615.516 365.176 606.659 369.231C601.252 357.422 594.372 338.725 598.066 325.69ZM555.013 344.982C567.802 350.891 577.634 368.236 581.934 379.921C573.693 383.485 560.285 388.153 548.603 382.368C535.815 376.46 525.983 359.115 521.682 347.429C529.924 343.866 543.332 339.198 555.013 344.982V344.982ZM619.131 558.884C602.654 550.883 591.101 528.864 585.449 514.226C595.536 509.187 613.618 502.799 628.497 510.061C644.482 517.446 656.527 540.081 662.178 554.719C652.091 559.757 634.01 566.146 619.131 558.884ZM719.015 512.309C714.95 528.665 698.22 538.006 687.642 542.43C680.76 528.775 671.053 505.281 676.348 487.941C680.413 471.586 697.143 462.245 707.721 457.821C714.603 471.476 723.695 495.462 719.015 512.309ZM669.115 427.182C666.035 439.726 653.979 447.347 645.123 451.402C639.101 440.085 632.22 421.388 636.53 407.861C639.61 395.317 651.666 387.697 660.522 383.641C665.929 395.45 672.809 414.147 669.115 427.182Z" fill="white"/>
<path d="M754.42 234.985C748.27 234.859 742.611 240.392 742.485 246.541L742.724 264.497C731.407 270.519 709.633 284.901 705.811 309.128C700.633 340.488 726.079 373.581 728.414 377.764C731.364 381.455 736.775 383.179 741.449 381.459C742.065 380.967 753.135 377.159 764.207 368.308C774.049 360.44 783.155 349.129 786.605 333.265C791.289 306.332 773.097 278.53 765.845 268.196L765.484 246.304C766.716 240.278 761.184 234.618 754.42 234.985V234.985ZM763.484 329.566C761.512 342.233 749.948 350.469 742.074 355.754C735.437 344.929 726.712 327.707 729.423 313.442C731.395 300.774 742.96 292.539 750.833 287.253C756.855 298.57 765.58 315.792 763.484 329.566Z" fill="white"/>
<path d="M287.522 643.495C262.433 642.379 244.224 659.959 235.857 669.672L217.779 665.975C211.753 664.743 204.618 668.43 203.878 675.071C203.137 681.712 206.333 688.232 212.974 688.972L234.249 694.146C242.239 702.881 266.459 726.873 293.147 728.728C309.258 729.964 322.42 722.467 332.262 714.6C343.335 705.749 349.488 695.789 350.103 695.297C352.81 691.117 352.321 685.459 349.37 681.768C346.42 678.078 319.252 645.352 287.522 643.495V643.495ZM294.755 704.254C280.858 703.265 265.366 691.452 256.268 682.593C262.666 675.463 273.738 666.612 286.529 667.478C300.426 668.467 315.918 680.28 325.016 689.138C318.618 696.269 307.545 705.12 294.755 704.254V704.254Z" fill="white"/>
<path d="M910.197 682.107C835.28 725.862 775.754 727.069 732.847 684.744C734.324 681.547 735.801 678.35 736.295 673.923C737.159 666.175 735.194 658.672 730.276 652.52C723.392 643.909 712.571 640.461 702.854 642.179C692.777 622.005 688.97 605.892 688.97 605.892C687.989 599.619 681.103 596.05 674.83 597.031C668.557 598.013 664.988 604.899 665.97 611.172C665.846 612.279 670.513 630.729 681.942 653.855L675.175 659.264C661.288 633.062 655.023 613.873 655.638 613.381C653.549 606.985 647.155 604.031 640.882 605.013C634.486 607.101 631.532 613.495 632.513 619.768C632.39 620.875 639.883 644.123 656.721 674.015L644.419 683.849C618.969 660.841 597.328 648.903 596.836 648.288C591.057 644.842 584.045 647.422 580.6 653.201C577.154 658.98 579.734 665.991 585.513 669.437C585.513 669.437 603.957 679.898 625.965 698.601L619.198 704.01C599.157 687.768 582.188 679.152 581.082 679.029C575.179 676.69 567.676 678.654 565.337 684.557C562.998 690.46 564.963 697.963 570.865 700.302C570.865 700.302 587.343 708.302 605.293 723.191C605.17 724.298 604.431 725.896 604.308 727.003C603.444 734.751 605.409 742.254 610.326 748.405C616.718 756.402 626.925 760.341 637.133 759.238C670.075 810.537 656.277 868.951 596.481 932.882C592.051 937.431 592.294 945.302 596.843 949.732C600.9 953.546 607.541 954.286 612.462 950.353L613.693 949.369C696.99 860.604 685.578 792.095 658.538 748.178L666.534 741.785C702.183 788.904 716.061 840.318 708.783 895.537C708.043 902.178 712.468 907.714 718.494 908.946C721.815 909.317 725.259 908.58 727.719 906.613C730.18 904.646 731.533 902.556 731.904 899.236C740.905 838.606 724.57 779.073 684.988 727.034L691.139 722.117C733.182 772.189 787.163 800.62 848.778 805.809C852.099 806.18 855.051 804.828 856.896 803.353C859.357 801.386 860.834 798.189 861.204 794.868C861.945 788.227 856.412 782.567 850.263 782.442C794.674 778.485 747.087 753.008 709.593 707.365L717.59 700.973C754.964 737.638 818.785 763.244 923.718 701.544L924.948 700.561C929.254 697.119 931.102 690.601 927.783 685.188C922.742 680.144 916.225 678.296 910.197 682.107V682.107ZM636.528 734.518C636.118 734.845 636.118 734.845 636.528 734.518C634.067 736.484 630.747 736.114 628.78 733.654C627.797 732.423 627.428 730.701 627.552 729.595C627.675 728.488 628.29 727.996 628.414 726.889L703.46 666.9C705.92 664.933 709.241 665.303 711.207 667.764C712.191 668.994 712.559 670.716 712.436 671.823C712.312 672.93 711.574 674.528 710.344 675.512L636.528 734.518V734.518Z" fill="white"/>
<path d="M218.043 618.379L239.446 612.361C241.168 611.992 242.398 611.009 243.628 610.026C247.319 607.075 248.92 602.771 247.815 597.605C245.726 591.209 239.332 588.255 233.059 589.236L211.657 595.255C205.261 597.343 201.815 603.122 203.288 610.01C205.376 616.406 211.647 620.467 218.043 618.379Z" fill="white"/>
<path d="M636.234 219.566C638.694 217.599 640.663 215.017 640.418 212.188L642.887 190.051C643.627 183.41 639.202 177.874 632.561 177.133C625.919 176.393 620.383 180.818 619.643 187.459L617.175 209.596C616.434 216.237 620.859 221.774 627.501 222.514C630.329 222.269 633.773 221.533 636.234 219.566V219.566Z" fill="white"/>
<path d="M663.035 245.526C659.589 251.306 662.17 258.317 667.949 261.763C672.129 264.47 677.295 263.365 680.986 260.415C682.216 259.432 683.446 258.448 684.185 256.849L694.77 237.298C698.215 231.519 695.635 224.508 689.856 221.062C684.077 217.616 677.066 220.196 673.62 225.975L663.035 245.526Z" fill="white"/>
</g>
</g>
<defs>
<clipPath id="clip0_93_13626">
<rect width="713.933" height="711.472" fill="white" transform="translate(73.3354 518.859) rotate(-38.6378)"/>
</clipPath>
</defs>
</svg>
