<svg width="611" height="1002" viewBox="0 0 611 1002" fill="none" xmlns="http://www.w3.org/2000/svg">
<g clip-path="url(#clip0_331_4960)">
<path d="M410.534 651.743C425.169 651.133 437.593 645.235 447.436 637.367C462.814 625.074 471.306 609.212 472.045 607.614L472.168 606.507L473.398 605.523C474.629 604.54 508.954 573.068 499.745 535.061C492.869 506.279 463.975 484.007 450.941 475.27L449.476 448.212C449.11 441.448 443.454 436.895 436.689 437.261C429.925 437.628 425.372 443.283 425.739 450.048L427.204 477.106C424.62 480.18 420.806 484.237 416.745 490.508C416.992 488.294 416.132 485.957 415.887 483.128C410.239 458.405 386.509 440.071 374.459 432.564L372.379 405.998C372.012 399.233 366.357 394.68 359.592 395.047C352.828 395.413 348.275 401.069 348.641 407.833L350.722 434.4C348.876 435.875 346.908 438.457 344.324 441.53C344.817 437.103 344.204 432.552 342.976 428.493C337.451 402.663 311.508 384.082 300.565 376.699L291.226 354.926C288.523 349.022 282.128 346.068 275.732 348.156C269.828 350.859 266.873 357.254 268.962 363.65L275.474 380.625C267.107 390.338 251.848 411.609 257.496 436.332C258.233 439.776 259.584 442.728 260.936 445.68C257.615 445.31 254.295 444.94 251.466 445.184C226.745 445.79 210.011 465.216 202.628 476.159L184.427 473.569C177.786 472.828 172.249 477.254 171.509 483.895C170.768 490.536 175.194 496.072 181.835 496.813L203.357 499.773C211.963 508.016 238.151 529.426 265.701 528.576C270.743 528.578 274.802 527.35 278.861 526.121C276.893 528.703 274.924 531.285 273.57 533.375L247.74 538.9C241.468 539.882 237.407 546.152 238.388 552.425C239.37 558.698 245.64 562.759 251.913 561.777L277.128 556.745C287.332 565.727 311.554 584.676 337.381 584.194C339.595 584.441 341.932 583.581 344.761 583.336C340.332 587.885 337.009 592.557 335.532 595.754L309.211 600.664C302.938 601.645 298.877 607.916 299.859 614.189C300.84 620.462 307.111 624.523 313.384 623.541L338.598 618.508C351.405 629.461 381.282 652.964 410.553 651.745L410.534 651.743ZM383.881 559.122C389.664 552.483 392.003 546.581 392.618 546.089L393.848 545.106C394.463 544.614 398.893 540.065 403.569 533.302C403.69 537.238 404.427 540.682 404.548 544.618C405.653 549.784 407.373 554.458 410.2 559.255C405.281 558.147 399.747 557.53 394.704 557.528C390.769 557.649 387.325 558.386 383.881 559.122V559.122ZM320.322 490.962C320.404 490.225 320.404 490.225 320.322 490.962L321.552 489.979C322.167 489.487 325.982 485.43 331.149 479.283C330.656 483.71 331.269 488.261 332.497 492.32C333.234 495.764 334.586 498.716 335.937 501.668C332.617 501.298 329.296 500.928 326.467 501.173C321.425 501.171 317.366 502.399 313.307 503.628C316.876 496.742 319.696 491.463 320.322 490.962V490.962ZM393.378 489.023C396.448 501.692 388.941 513.742 383.649 520.996C373.321 513.121 358.445 500.816 355.498 487.04C352.428 474.371 359.935 462.321 365.226 455.067C375.678 461.836 389.94 474.632 393.378 489.023ZM477.236 540.956C481.534 557.684 470.828 573.299 463.691 582.029C450.658 573.292 432.339 556.681 427.549 539.338C423.251 522.61 433.957 506.995 441.094 498.265C454.127 507.002 473.061 523.121 477.236 540.956ZM282.71 431.299C279.641 418.63 287.148 406.58 292.439 399.326C302.767 407.201 317.644 419.505 320.59 433.281C323.66 445.95 316.153 458 310.862 465.254C300.41 458.486 285.657 445.075 282.71 431.299V431.299ZM225.499 487.113C230.791 479.859 240.88 469.778 254.409 469.045C268.429 468.928 284.66 479.142 294.988 487.017C289.697 494.271 279.608 504.353 266.079 505.085C251.935 506.31 235.212 495.48 225.499 487.113V487.113ZM297.795 542.24C303.087 534.986 313.176 524.904 326.089 524.663C340.11 524.546 356.341 534.76 366.669 542.635C361.377 549.89 351.288 559.971 338.375 560.212C324.23 561.436 307.508 550.607 297.795 542.24ZM395.433 581.142C413.389 580.903 434.292 594.439 446.095 604.16C439.45 613.505 426.654 627.766 409.805 628.129C391.848 628.368 370.946 614.831 359.142 605.11C365.787 595.766 378.584 581.504 395.433 581.142V581.142Z" fill="#777777" fill-opacity="0.1"/>
<path d="M177.187 432.98C205.097 454.022 244.702 445.551 246.424 445.182C248.146 444.814 249.868 444.446 251.714 442.971C254.789 440.512 256.266 437.315 256.145 433.379C255.777 431.657 253.087 390.455 225.668 370.029C202.922 352.925 171.805 355.618 160.489 356.598L142.907 343.431C137.743 339.494 130.364 340.352 126.426 345.516C122.488 350.68 123.346 358.06 128.51 361.997L146.093 375.164C146.584 375.779 147.2 375.287 147.691 375.902C149.039 388.939 156.039 416.614 177.187 432.98V432.98ZM210.78 387.979C222.706 396.593 228.235 412.338 230.444 422.669C219.744 423.157 203.018 422.413 191.707 413.308C179.78 404.694 174.252 388.949 172.042 378.617C182.742 378.129 198.853 379.366 210.78 387.979V387.979Z" fill="#777777" fill-opacity="0.1"/>
<path d="M243.152 318.749C247.209 322.563 254.465 322.812 258.771 319.37L260.001 318.387C264.431 313.838 264.188 305.967 259.639 301.537L243.41 286.281C238.246 282.343 230.375 282.586 225.946 287.135C221.516 291.684 221.759 299.555 226.308 303.984L243.152 318.749V318.749Z" fill="#777777" fill-opacity="0.1"/>
<path d="M371.955 228.894L373.185 227.911C377.491 224.469 379.339 217.951 376.02 212.538L364.712 193.348C361.394 187.935 354.876 186.088 348.972 188.791C343.559 192.11 341.096 199.119 344.907 205.147L356.214 224.338C358.918 230.242 365.927 232.705 371.955 228.894V228.894Z" fill="#777777" fill-opacity="0.1"/>
<path d="M132.52 486.832C135.841 487.202 138.793 485.85 140.639 484.375C143.099 482.408 144.576 479.211 144.946 475.891C145.687 469.249 141.262 463.713 134.62 462.973L112.484 460.505C105.842 459.764 100.306 464.19 99.5658 470.831C98.8253 477.472 103.251 483.008 109.892 483.748L132.52 486.832V486.832Z" fill="#777777" fill-opacity="0.1"/>
<path d="M500.226 244.317C501.456 243.334 502.81 241.243 503.548 239.645C504.287 238.046 521.273 201.279 506.896 169.42C495.59 145.187 470.136 132.263 458.331 127.585C457.84 126.97 458.455 126.478 457.963 125.863L448.993 105.813C446.289 99.9082 439.28 97.4458 433.375 100.149C427.471 102.853 425.008 109.862 427.712 115.767L436.682 135.817C432.743 146.024 423.261 175.783 435.427 202.353C449.804 234.213 489.402 245.912 490.509 246.035C493.214 246.897 497.15 246.776 500.226 244.317V244.317ZM455.601 192.276C449.826 178.745 452.168 162.758 455.001 152.428C464.593 156.859 478.733 165.719 484.508 179.25C490.283 192.781 487.94 208.769 485.108 219.099C475.516 214.667 461.376 205.807 455.601 192.276V192.276Z" fill="#777777" fill-opacity="0.1"/>
<path d="M390.225 371.568C393.054 371.323 395.391 370.463 397.851 368.496C400.312 366.529 401.665 364.439 402.036 361.118C402.774 359.52 408.939 319.305 386.688 292.731C369.355 272.308 341.439 266.394 328.648 265.528L313.897 247.074C309.963 242.153 302.215 241.289 297.294 245.223C292.373 249.157 291.509 256.905 295.443 261.826L309.211 279.049C307.977 290.118 306.735 321.356 325.544 343.625C347.179 370.69 388 371.33 390.225 371.568V371.568ZM367.619 307.974C376.962 319.662 378.555 335.528 378.428 346.72C367.974 344.994 351.742 339.822 342.891 328.75C333.548 317.062 331.955 301.196 332.083 290.004C342.536 291.73 358.769 296.902 367.619 307.974Z" fill="#777777" fill-opacity="0.1"/>
<path d="M594.551 262.679L583.473 286.657C581.136 287.517 578.799 288.377 575.231 290.221C577.323 286.532 578.924 282.228 580.524 277.924C587.422 251.238 572.183 222.084 566.161 210.767L568.014 189.121C568.754 182.48 564.329 176.944 557.688 176.204C551.047 175.463 545.51 179.889 544.77 186.53L543.287 204.854C530.986 209.646 508.352 221.69 502.316 245.671C501.946 248.991 501.084 251.697 500.714 255.017C498.132 253.048 495.55 251.08 492.353 249.603C469.481 238.648 445.372 248.847 434.054 254.869L418.931 244.778C413.767 240.84 405.772 242.19 402.326 247.969C398.388 253.133 399.738 261.128 405.517 264.574L424.698 278.479C429.49 290.78 441.9 320.178 465.879 331.257C470.183 332.857 474.487 334.458 478.299 335.443C474.732 337.286 471.78 338.638 469.934 340.113L444.479 332.232C437.961 330.385 431.933 334.195 429.594 340.098C427.747 346.616 431.557 352.643 437.46 354.982L462.915 362.863C468.199 375.779 480.241 403.456 503.112 414.411C505.203 415.765 507.416 416.012 510.122 416.873C503.726 418.962 498.313 422.28 494.746 424.124L468.675 416.735C462.157 414.887 456.129 418.698 453.79 424.6C451.943 431.118 455.753 437.146 461.656 439.485L487.726 446.874C493.378 461.512 508.124 495.093 535.3 507.648C570.345 525.003 608.604 498.453 609.834 497.469L611.065 496.486L612.171 496.609C613.278 496.732 630.621 491.943 646.615 479.158C656.457 471.29 664.947 460.471 668.765 446.329C676.525 416.937 660.057 383.724 652.56 370.562L663.023 347.075C665.362 341.172 662.782 334.161 656.879 331.822C650.977 329.483 643.966 332.063 641.627 337.966L631.04 362.559C626.981 363.787 622.307 365.507 616.894 368.826C618.248 366.736 618.495 364.522 619.357 361.817C626.007 337.345 612.367 308.929 605.853 296.997L616.316 273.51C618.655 267.607 616.075 260.596 610.172 258.257C603.893 254.185 596.881 256.765 594.542 262.668L594.551 262.679ZM580.474 409.029C579.365 413.948 578.748 419.483 578.746 424.525C575.181 421.326 570.509 418.004 565.713 415.788C562.516 414.311 558.704 413.325 554.891 412.34C563.133 408.777 568.054 404.843 568.546 405.458L569.776 404.475C570.391 403.983 576.664 403.001 584.414 398.823C582.937 402.02 581.459 405.217 580.474 409.029V409.029ZM486.531 357.092C494.773 353.529 508.18 348.86 519.862 354.645C532.65 360.553 542.483 377.899 546.783 389.584C538.541 393.148 525.134 397.816 513.452 392.031C501.155 386.738 491.323 369.393 486.531 357.092ZM538.439 338.787C535.857 336.818 533.275 334.849 530.078 333.372C525.774 331.772 521.47 330.171 517.658 329.186C525.284 326.114 530.205 322.18 530.205 322.18L531.436 321.197C532.051 320.705 537.832 319.108 545.458 316.037C543.366 319.725 541.765 324.029 540.165 328.333C539.18 332.146 538.809 335.466 538.439 338.787V338.787ZM525.066 252.69C528.146 240.146 540.202 232.526 549.058 228.47C555.081 239.788 561.961 258.484 557.651 272.012C554.571 284.555 542.516 292.176 533.659 296.231C528.252 284.422 521.372 265.725 525.066 252.69ZM482.013 271.982C494.802 277.891 504.634 295.236 508.934 306.921C500.693 310.485 487.285 315.153 475.603 309.368C462.815 303.46 452.983 286.115 448.682 274.429C456.924 270.866 470.332 266.198 482.013 271.982V271.982ZM546.131 485.884C529.654 477.883 518.101 455.864 512.449 441.226C522.536 436.187 540.618 429.799 555.497 437.061C571.482 444.446 583.527 467.081 589.178 481.719C579.091 486.757 561.01 493.146 546.131 485.884ZM646.015 439.31C641.95 455.665 625.22 465.006 614.642 469.43C607.76 455.775 598.053 432.281 603.348 414.941C607.413 398.586 624.143 389.245 634.721 384.821C641.603 398.476 650.695 422.462 646.015 439.31ZM596.115 354.182C593.035 366.726 580.979 374.347 572.123 378.402C566.101 367.085 559.22 348.388 563.53 334.861C566.61 322.317 578.666 314.697 587.522 310.641C592.929 322.45 599.809 341.147 596.115 354.182Z" fill="#777777" fill-opacity="0.1"/>
<path d="M681.419 161.985C675.27 161.859 669.61 167.392 669.485 173.541L669.724 191.497C658.407 197.519 636.632 211.901 632.81 236.128C627.633 267.488 653.079 300.582 655.414 304.764C658.364 308.455 663.775 310.179 668.449 308.459C669.064 307.967 680.135 304.159 691.207 295.308C701.049 287.44 710.154 276.129 713.604 260.265C718.288 233.332 700.097 205.53 692.844 195.196L692.484 173.304C693.716 167.278 688.184 161.618 681.419 161.985V161.985ZM690.484 256.566C688.511 269.233 676.947 277.469 669.074 282.754C662.437 271.929 653.711 254.707 656.422 240.442C658.395 227.775 669.959 219.539 677.832 214.253C683.854 225.571 692.58 242.792 690.484 256.566Z" fill="#777777" fill-opacity="0.1"/>
<path d="M214.522 570.495C189.433 569.379 171.224 586.959 162.857 596.672L144.779 592.975C138.753 591.743 131.618 595.43 130.878 602.071C130.137 608.712 133.333 615.232 139.974 615.972L161.249 621.146C169.239 629.881 193.459 653.873 220.147 655.728C236.258 656.964 249.42 649.467 259.262 641.6C270.335 632.749 276.488 622.789 277.103 622.297C279.81 618.117 279.321 612.459 276.37 608.768C273.42 605.078 246.252 572.352 214.522 570.495V570.495ZM221.755 631.254C207.858 630.265 192.366 618.452 183.268 609.593C189.666 602.463 200.738 593.612 213.529 594.478C227.426 595.467 242.918 607.28 252.016 616.138C245.618 623.269 234.545 632.12 221.755 631.254V631.254Z" fill="#777777" fill-opacity="0.1"/>
<path d="M837.196 609.107C762.279 652.862 702.753 654.069 659.846 611.744C661.323 608.547 662.8 605.35 663.294 600.923C664.158 593.175 662.193 585.672 657.275 579.521C650.391 570.909 639.57 567.461 629.853 569.179C619.776 549.005 615.969 532.892 615.969 532.892C614.988 526.619 608.102 523.05 601.829 524.031C595.556 525.013 591.987 531.899 592.969 538.172C592.845 539.279 597.512 557.729 608.941 580.855L602.174 586.264C588.287 560.062 582.022 540.873 582.637 540.382C580.548 533.985 574.154 531.031 567.881 532.013C561.485 534.101 558.531 540.495 559.512 546.768C559.389 547.875 566.882 571.123 583.72 601.015L571.418 610.85C545.968 587.841 524.327 575.903 523.835 575.288C518.056 571.842 511.044 574.422 507.599 580.201C504.153 585.98 506.733 592.991 512.512 596.437C512.512 596.437 530.956 606.898 552.964 625.601L546.197 631.01C526.156 614.768 509.187 606.152 508.081 606.029C502.178 603.69 494.675 605.655 492.336 611.557C489.997 617.46 491.962 624.963 497.864 627.302C497.864 627.302 514.342 635.302 532.292 650.191C532.169 651.298 531.43 652.896 531.307 654.003C530.443 661.751 532.408 669.254 537.325 675.405C543.717 683.402 553.924 687.342 564.132 686.239C597.074 737.537 583.276 795.951 523.48 859.882C519.05 864.431 519.293 872.303 523.842 876.732C527.899 880.546 534.54 881.287 539.461 877.353L540.692 876.369C623.989 787.604 612.577 719.095 585.537 675.178L593.533 668.785C629.182 715.904 643.06 767.318 635.782 822.537C635.042 829.178 639.467 834.714 645.493 835.946C648.814 836.317 652.258 835.58 654.718 833.613C657.179 831.646 658.532 829.556 658.903 826.236C667.904 765.606 651.569 706.073 611.987 654.034L618.138 649.117C660.181 699.189 714.162 727.62 775.777 732.809C779.098 733.18 782.05 731.828 783.895 730.353C786.356 728.386 787.833 725.189 788.203 721.868C788.944 715.227 783.411 709.568 777.262 709.442C721.673 705.485 674.086 680.008 636.592 634.365L644.589 627.973C681.963 664.638 745.785 690.244 850.717 628.544L851.947 627.561C856.253 624.119 858.101 617.601 854.782 612.188C849.741 607.144 843.224 605.296 837.196 609.107V609.107ZM563.527 661.518C563.117 661.845 563.117 661.845 563.527 661.518C561.066 663.485 557.746 663.114 555.779 660.654C554.796 659.424 554.427 657.702 554.551 656.595C554.674 655.488 555.289 654.996 555.413 653.889L630.459 593.9C632.919 591.933 636.24 592.303 638.206 594.764C639.19 595.994 639.558 597.716 639.435 598.823C639.311 599.93 638.573 601.528 637.343 602.512L563.527 661.518V661.518Z" fill="#777777" fill-opacity="0.1"/>
<path d="M145.043 545.379L166.445 539.361C168.167 538.992 169.398 538.009 170.628 537.026C174.319 534.075 175.919 529.771 174.814 524.605C172.726 518.209 166.332 515.255 160.059 516.237L138.656 522.255C132.26 524.343 128.814 530.122 130.288 537.01C132.376 543.406 138.647 547.467 145.043 545.379Z" fill="#777777" fill-opacity="0.1"/>
<path d="M563.233 146.566C565.693 144.599 567.662 142.017 567.417 139.188L569.886 117.051C570.626 110.41 566.201 104.874 559.56 104.133C552.918 103.393 547.382 107.818 546.642 114.459L544.174 136.596C543.433 143.237 547.859 148.774 554.5 149.514C557.328 149.269 560.772 148.533 563.233 146.566V146.566Z" fill="#777777" fill-opacity="0.1"/>
<path d="M590.034 172.526C586.589 178.306 589.169 185.317 594.948 188.763C599.128 191.47 604.294 190.365 607.985 187.415C609.215 186.432 610.445 185.448 611.184 183.85L621.769 164.298C625.214 158.519 622.634 151.508 616.855 148.062C611.076 144.616 604.065 147.196 600.619 152.975L590.034 172.526Z" fill="#777777" fill-opacity="0.1"/>
</g>
<defs>
<clipPath id="clip0_331_4960">
<rect width="713.933" height="711.472" fill="white" transform="translate(0.334961 445.859) rotate(-38.6378)"/>
</clipPath>
</defs>
</svg>
